<svg enable-background="new 0 0 35 35" height="35" viewBox="0 0 32 32" width="35" xmlns="http://www.w3.org/2000/svg"><path clip-rule="evenodd" d="m16.003 0c-8.833 0-15.995 7.162-15.995 15.997 0 7.067 4.582 13.063 10.94 15.179.8.146 1.052-.328 1.052-.752 0-.38.008-1.442 0-2.777-4.449.967-5.371-2.107-5.371-2.107-.727-1.848-1.775-2.34-1.775-2.34-1.452-.992.109-.973.109-.973 1.605.113 2.451 1.649 2.451 1.649 1.427 2.443 3.743 1.737 4.654 1.329.146-1.034.56-1.739 1.017-2.139-3.552-.404-7.286-1.776-7.286-7.906 0-1.747.623-3.174 1.646-4.292-.165-.404-.715-2.031.157-4.234 0 0 1.343-.43 4.398 1.641 1.276-.355 2.645-.532 4.005-.538 1.359.006 2.727.183 4.005.538 3.055-2.07 4.396-1.641 4.396-1.641.872 2.203.323 3.83.159 4.234 1.023 1.118 1.644 2.545 1.644 4.292 0 6.146-3.74 7.498-7.304 7.893.574.495 1.095 1.455 1.095 2.947v4.428c0 .428.258.901 1.07.746 6.352-2.119 10.93-8.112 10.93-15.177 0-8.835-7.162-15.997-15.997-15.997z" fill="#cc392f" fill-rule="evenodd"/></svg>